<?xml version="1.0" encoding="UTF-8"?>
<svg id="Calque_1" xmlns="http://www.w3.org/2000/svg" version="1.1" viewBox="0 0 24 24">
  <defs>
    <style>
      .st0 {
        fill: none;
        stroke: currentColor;
        stroke-linecap: round;
        stroke-linejoin: round;
      }
    </style>
  </defs>
  <path class="st0" d="M12,23.5c6.3,0,11.5-5.1,11.5-11.5S18.3.5,12,.5.5,5.7.5,12s5.1,11.5,11.5,11.5Z"/>
  <path class="st0" d="M2.6,18.6l1.4-.8c.1,0,.3-.2.3-.3,0-.1.1-.3.1-.5v-4.3c0-.2,0-.4.2-.5l2.4-3.7c0-.1.2-.2.3-.3.1,0,.2-.1.4-.1.1,0,.3,0,.4,0,.1,0,.2,0,.4.2l2.3,1.7c.2.1.4.2.7.2l3.8-.5c.2,0,.4-.1.6-.3l2.6-3.1c.2-.2.2-.4.2-.7v-2.9"/>
  <path class="st0" d="M19.1,21l-1.3-1.3c-.1-.1-.3-.2-.4-.3l-2.6-.7c-.2,0-.4-.2-.5-.4-.1-.2-.2-.4-.1-.7l.3-1.9c0-.2,0-.3.2-.4.1-.1.2-.2.4-.3l3.6-1.5c.2,0,.4,0,.5,0,.2,0,.3.1.5.2l3,2.7"/>
</svg>